<svg xmlns="http://www.w3.org/2000/svg" width="800pt" height="200pt" viewBox="0 0 800 200"><defs><linearGradient id="a" x1="0" x2="1" y1="0" y2="1"><stop offset="0%" stop-color="#2C0936"/><stop offset="35%" stop-color="#3f134e"/><stop offset="66%" stop-color="#16071A"/><stop offset="100%" stop-color="#1E0824"/></linearGradient></defs><rect width="790" height="190" fill="url(#a)" rx="20"/><path fill="azure" d="M333 142a38 38 0 0 1-1.8 12.8 17 17 0 0 1-5 7.6c-2.2 1.8-4.8 3-8 3.6-3 .6-6.4 1-10.1 1-5 0-9-.9-11.6-2.5-2.7-1.5-4-3.4-4-5.7 0-1.8.7-3.4 2.2-4.6a9 9 0 0 1 6-2c2 0 3.4.6 4.6 1.6 1.1 1 2 2 2.8 3a9.4 9.4 0 0 0 2.1 2.3 3 3 0 0 0 1.6.5c1 0 1.8-.6 2.3-1.7.5-1.2.8-3.5.8-7V86l18.1-5Zm25.8-59.4v41.9a8.1 8.1 0 0 0 2.5 6c.8.7 1.8 1.3 2.8 1.7 1 .5 2.2.7 3.4.7 1.4 0 3-.8 4.8-2.1 3-2.1 4.9-3.6 4.9-5.3V82.6h18v59.5h-18v-5.6c-2.4 2-5 3.6-7.6 4.9a19 19 0 0 1-7.9 1.8 22.7 22.7 0 0 1-14.8-5.5 18.5 18.5 0 0 1-4.5-6c-1-2.2-1.6-4.6-1.6-7.2V82.6Zm61.7 59.5h-18V58.7l18-5Zm7.5-56.2 18-5v61.2h-18Zm55.8 25.5a57.1 57.1 0 0 0-10.1 5.7 17.2 17.2 0 0 0-3.6 3.8 7.2 7.2 0 0 0-1.3 4c0 1.2.1 2.3.4 3.3.3 1 .7 1.9 1.3 2.6.5.8 1 1.4 1.7 1.8.6.5 1.3.7 2 .7 1.5 0 3-.5 4.5-1.4 1.5-.9 3.2-2 5-3.4Zm18 30.7h-18v-4.8l-3 2.4a16.5 16.5 0 0 1-7.2 3 27.5 27.5 0 0 1-12.6-.7c-2.2-.8-4-1.9-5.6-3.3-1.5-1.3-2.7-3-3.5-4.8a15 15 0 0 1-1.2-6.2c0-2.2.4-4.3 1.3-6.1.9-1.9 2-3.5 3.5-5 1.6-1.5 3.3-2.8 5.3-4a59.7 59.7 0 0 1 13.6-5.9l7.4-2.3 2-.5v-5.8c0-3.8-.8-6.5-2.2-8.1a7.5 7.5 0 0 0-5.8-2.4c-2.9 0-4.9.7-6 2a7.7 7.7 0 0 0-1.6 5c0 1.2-.1 2.3-.4 3.3a6 6 0 0 1-3.7 4.7c-1 .5-2.4.7-4 .7-2.6 0-4.7-.7-6.3-2.2a7.1 7.1 0 0 1-2.3-5.5c0-2 .7-4 2-5.7 1.5-1.8 3.4-3.3 5.7-4.6a42.7 42.7 0 0 1 18.1-4.1c4.3 0 8 .4 11 1.2 3.2.7 5.7 1.8 7.7 3.2 2 1.5 3.5 3.2 4.5 5.2.9 2 1.4 4.2 1.4 6.7Zm0 0"/><path fill="#4063d8" d="M336.6 65.6a12.2 12.2 0 1 1-24.5 0 12.2 12.2 0 0 1 24.5 0"/><path fill="#389826" d="M465 40.1a12.2 12.2 0 1 1-24.6 0 12.2 12.2 0 0 1 24.5 0"/><path fill="#9558b2" d="M479.6 65.6a12.2 12.2 0 1 1-24.5 0 12.2 12.2 0 0 1 24.5 0"/><path fill="#cb3c33" d="M450.2 65.6a12.2 12.2 0 1 1-24.5 0 12.2 12.2 0 0 1 24.5 0"/></svg>