<?xml version="1.0" encoding="UTF-8"?><svg xmlns="http://www.w3.org/2000/svg" width="800pt" height="200pt" viewBox="0 0 800 200"><defs><linearGradient id="a" x1="0" x2="1" y1="0" y2="1"><stop offset="0%" stop-color="#eef"/><stop offset="16.33%" stop-color="#f5ccc0"/><stop offset="49%" stop-color="#dff1e5"/><stop offset="66%" stop-color="#a6d8d4"/><stop offset="100%" stop-color="#9589e1"/></linearGradient></defs><rect width="790" height="190" fill="url(#a)" rx="20"/><path d="M333 142.07c0 5.27-.58 9.53-1.77 12.78-1.19 3.24-2.87 5.76-5.07 7.56-2.18 1.79-4.8 2.99-7.87 3.6-3.06.6-6.46.9-10.2.9-5.07 0-8.95-.78-11.64-2.37-2.69-1.58-4.03-3.48-4.03-5.7 0-1.84.75-3.4 2.25-4.67 1.5-1.26 3.52-1.9 6.06-1.9 1.9 0 3.41.52 4.54 1.55a20.88 20.88 0 0 1 2.82 3.04 9.43 9.43 0 0 0 2.13 2.22 3 3 0 0 0 1.58.55c1 0 1.77-.6 2.3-1.77.52-1.2.8-3.5.8-6.93V85.89L333 80.9Zm25.82-59.43v41.86a8.1 8.1 0 0 0 2.53 5.94c.8.74 1.71 1.33 2.77 1.78 1.06.44 2.19.67 3.4.67 1.37 0 2.93-.77 4.83-2.1 3-2.1 4.83-3.55 4.83-5.26V82.64h18.04v59.43h-18.04v-5.54c-2.38 2-4.91 3.61-7.6 4.83a18.96 18.96 0 0 1-7.83 1.82c-2.96 0-5.7-.5-8.23-1.47a21.6 21.6 0 0 1-6.65-4 18.54 18.54 0 0 1-4.47-5.93 16.7 16.7 0 0 1-1.63-7.28V82.64Zm61.7 59.43h-17.97V58.74l17.97-4.98Zm7.5-56.18 18.04-4.99v61.17h-18.04Zm55.74 25.47c-1.74.75-3.5 1.6-5.26 2.58a34.29 34.29 0 0 0-4.83 3.2 17.2 17.2 0 0 0-3.52 3.72 7.22 7.22 0 0 0-1.35 4.12c0 1.1.15 2.17.43 3.2.3 1.03.7 1.91 1.23 2.65s1.11 1.33 1.75 1.78c.63.45 1.31.67 2.05.67 1.48 0 2.97-.44 4.47-1.34 1.5-.9 3.18-2.03 5.03-3.4Zm18.12 30.71h-18.12v-4.75c-1 .84-1.98 1.63-2.93 2.34-.95.7-2.02 1.32-3.2 1.86-1.2.52-2.52.93-4 1.22-1.48.3-3.22.44-5.22.44-2.75 0-5.21-.4-7.4-1.2a16.8 16.8 0 0 1-5.58-3.24c-1.53-1.37-2.7-2.99-3.52-4.87a15.08 15.08 0 0 1-1.23-6.12c0-2.27.44-4.33 1.3-6.18.88-1.84 2.06-3.5 3.57-4.98 1.5-1.48 3.25-2.8 5.26-3.96 2-1.16 4.15-2.23 6.45-3.2 2.3-.98 4.68-1.88 7.16-2.7 2.48-.8 4.93-1.59 7.36-2.33l1.98-.47v-5.86c0-3.8-.73-6.48-2.18-8.07a7.51 7.51 0 0 0-5.81-2.37c-2.85 0-4.83.68-5.94 2.05a7.69 7.69 0 0 0-1.66 4.99c0 1.1-.12 2.19-.36 3.24a7.3 7.3 0 0 1-1.22 2.77 5.96 5.96 0 0 1-2.5 1.9c-1.08.48-2.44.72-4.07.72-2.53 0-4.59-.73-6.17-2.18a7.14 7.14 0 0 1-2.38-5.5c0-2.06.7-3.97 2.1-5.74a17.64 17.64 0 0 1 5.66-4.55 34.1 34.1 0 0 1 8.23-3c3.1-.74 6.4-1.11 9.89-1.11 4.27 0 7.95.38 11.04 1.14 3.08.77 5.63 1.86 7.63 3.29 2 1.42 3.48 3.14 4.43 5.14.95 2 1.43 4.25 1.43 6.73Zm0 0"/><path fill="#4063d8" d="M336.57 65.61a12.25 12.25 0 1 1-24.5 0 12.25 12.25 0 0 1 24.5 0"/><path fill="#389826" d="M464.91 40.12a12.25 12.25 0 1 1-24.5 0 12.25 12.25 0 0 1 24.5 0"/><path fill="#9558b2" d="M479.63 65.61a12.25 12.25 0 1 1-24.5 0 12.25 12.25 0 0 1 24.5 0"/><path fill="#cb3c33" d="M450.2 65.61a12.25 12.25 0 1 1-24.5 0 12.25 12.25 0 0 1 24.5 0"/></svg>